<svg id="Laag_1" data-name="Laag 1" xmlns="http://www.w3.org/2000/svg" viewBox="0 0 372.01 261.84"><defs><style>.cls-1{fill:#009ddf;}</style></defs><title>TopParken_Lichtblauw_RGB</title><polygon class="cls-1" points="34.08 109.99 0 109.99 0 119.9 11.65 119.9 11.65 152.44 22.68 152.44 22.68 119.9 34.08 119.9 34.08 109.99"/><path class="cls-1" d="M101.61,195A23.07,23.07,0,0,0,85,188.51,23.07,23.07,0,0,0,68.41,195a21.1,21.1,0,0,0,0,31.07,23.26,23.26,0,0,0,16.6,6.4,23.26,23.26,0,0,0,16.6-6.4,21,21,0,0,0,0-31.07Zm-8,24.11a12.12,12.12,0,1,1-17.14-17.15,11.9,11.9,0,0,1,17.14,0,11.91,11.91,0,0,1,0,17.14Z" transform="translate(-24.37 -79.13)"/><path class="cls-1" d="M144.83,214.82a14,14,0,0,0,4.65-10.7,14.43,14.43,0,0,0-5.12-11.3,15.77,15.77,0,0,0-9.69-3.69H114.78v42.44h11V219.05h8.86A14.73,14.73,0,0,0,144.83,214.82Zm-19-5.67V199h8.31a5.5,5.5,0,0,1,2.37.58c1.37.58,2.15,2.22,2.15,4.5s-.8,3.81-2.15,4.38a5.22,5.22,0,0,1-2.31.65Z" transform="translate(-24.37 -79.13)"/><path class="cls-1" d="M185.34,214.82a14,14,0,0,0,4.65-10.7,14.44,14.44,0,0,0-5.13-11.3,15.74,15.74,0,0,0-9.68-3.69H155.29v42.44h11V219.05h8.87A14.73,14.73,0,0,0,185.34,214.82Zm-19-5.67V199h8.31a5.53,5.53,0,0,1,2.38.58c1.37.58,2.15,2.22,2.15,4.5s-.8,3.81-2.15,4.38a5.22,5.22,0,0,1-2.31.65Z" transform="translate(-24.37 -79.13)"/><path class="cls-1" d="M218.76,225.93l2.24,5.64h11.64l-17.3-42.44H205.06l-17.29,42.44h11.58l2.3-5.64Zm-8.55-23.15L216,217.57H204.45Z" transform="translate(-24.37 -79.13)"/><path class="cls-1" d="M253.38,218.29l8.69,13.28h12.61L264,215.8l.4-.18a13,13,0,0,0,7.16-12,13.57,13.57,0,0,0-4.41-10.27,15,15,0,0,0-10.71-4.23H237.21v42.44h11V218.12h5ZM248.23,199h7.94c2.59,0,4.46,2.08,4.46,5,0,3.41-2,5.45-5.45,5.45h-7Z" transform="translate(-24.37 -79.13)"/><polygon class="cls-1" points="281.2 152.44 294.19 152.44 278.69 128.75 293.55 109.99 280.69 109.99 266.38 128.24 266.38 109.99 255.35 109.99 255.35 152.44 266.38 152.44 266.38 141.58 270.74 136.47 281.2 152.44"/><polygon class="cls-1" points="329.29 135.46 329.29 126.54 310.57 126.54 310.57 119.84 330.65 119.84 330.65 109.99 299.54 109.99 299.54 152.44 331.15 152.44 331.15 142.78 310.57 142.78 310.57 135.46 329.29 135.46"/><polygon class="cls-1" points="372.01 152.44 372.01 109.99 361.75 109.99 361.75 131.26 346.07 109.99 336.67 109.99 336.67 152.44 347.93 152.44 347.93 131.79 361.5 152.44 372.01 152.44"/><path class="cls-1" d="M210.28,147.73a9,9,0,0,0,4.83-1.19l67.23-38.46c2.45-1.89,3-5,.27-7-20-14.68-45.4-21.84-72.05-22H210a130.33,130.33,0,0,0-72,22,4.11,4.11,0,0,0,.26,7l67.23,38.46a9,9,0,0,0,4.84,1.19" transform="translate(-24.37 -79.13)"/><path class="cls-1" d="M198.36,155.84l-71.5-40.9a6.29,6.29,0,0,0-7.51,1c-6,5.86-10.5,12.28-15.32,19.2-1.52,2.19,0,5.23,2.67,5.73l90.67,17.67A1.44,1.44,0,0,0,198.36,155.84Z" transform="translate(-24.37 -79.13)"/><path class="cls-1" d="M169.87,164.85l-71-14.08c-1.4-.26-3.88.4-4.62,1.7a71.88,71.88,0,0,0-4.16,9.6c-.8,2.05,1,4.27,3.23,4.27h76.4A.75.75,0,0,0,169.87,164.85Z" transform="translate(-24.37 -79.13)"/><path class="cls-1" d="M222.16,155.84l71.5-40.9a6.29,6.29,0,0,1,7.51,1c6,5.86,10.5,12.28,15.31,19.2,1.53,2.19,0,5.23-2.66,5.73L223.15,158.5A1.44,1.44,0,0,1,222.16,155.84Z" transform="translate(-24.37 -79.13)"/><path class="cls-1" d="M250.65,164.85l70.66-14.08a4.5,4.5,0,0,1,4.28,1.7,75.6,75.6,0,0,1,4.83,9.6c.8,2.05-1,4.27-3.23,4.27h-76.4A.75.75,0,0,1,250.65,164.85Z" transform="translate(-24.37 -79.13)"/><path class="cls-1" d="M210.24,272.38a9,9,0,0,0-4.83,1.19L138.18,312c-2.45,1.89-3,5-.27,7,20,14.68,45.4,21.84,72.05,22h.58a130.41,130.41,0,0,0,72-22,4.11,4.11,0,0,0-.26-7l-67.24-38.46a9,9,0,0,0-4.83-1.19" transform="translate(-24.37 -79.13)"/><path class="cls-1" d="M222.16,264.27l71.5,40.9a6.28,6.28,0,0,0,7.51-1c6-5.85,10.5-12.28,15.31-19.19,1.53-2.19,0-5.23-2.66-5.74l-90.67-17.66A1.44,1.44,0,0,0,222.16,264.27Z" transform="translate(-24.37 -79.13)"/><path class="cls-1" d="M250.65,255.25l71,14.08c1.39.27,3.88-.39,4.62-1.7a71.32,71.32,0,0,0,4.16-9.6c.8-2-1-4.26-3.23-4.26h-76.4A.75.75,0,0,0,250.65,255.25Z" transform="translate(-24.37 -79.13)"/><path class="cls-1" d="M198.36,264.27l-71.5,40.9a6.28,6.28,0,0,1-7.51-1c-6-5.85-10.5-12.28-15.32-19.19-1.52-2.19,0-5.23,2.67-5.74l90.67-17.66A1.44,1.44,0,0,1,198.36,264.27Z" transform="translate(-24.37 -79.13)"/><path class="cls-1" d="M169.87,255.25l-71,14.08c-1.4.27-3.88-.39-4.62-1.7A71.32,71.32,0,0,1,90.1,258c-.8-2,1-4.26,3.23-4.26h76.4A.75.75,0,0,1,169.87,255.25Z" transform="translate(-24.37 -79.13)"/></svg>